<svg class="location" width="24" height="24" viewBox="0 0 24 24" fill="none" xmlns="http://www.w3.org/2000/svg">
  <g>
    <rect x="0" y="0" width="24" height="24" fill="transperant" />
    <path fill="var(--path-fill-color, currentColor)" stroke="var(--path-stroke-color, transperant)" d="M12.5 4.75C15.5365 4.75 18 7.19807 18 10.2578C17.9998 13.7255 14.5621 17.8923 13.1299 19.4658C12.7862 19.8445 12.2138 19.8445 11.8701 19.4658C10.4379 17.8923 7.00019 13.7255 7 10.2578C7 7.19807 9.46354 4.75 12.5 4.75ZM12.5 8C11.3954 8 10.5 8.89543 10.5 10C10.5 11.1046 11.3954 12 12.5 12C13.6046 12 14.5 11.1046 14.5 10C14.5 8.89543 13.6046 8 12.5 8Z"/>
  </g>
</svg>
